<svg width="408" height="179" viewBox="0 0 408 179" fill="none" xmlns="http://www.w3.org/2000/svg">
<path d="M2.5217 12.7846L39.1541 3.89989L75.7865 120.671L112.419 150.951L149.051 174.342L185.684 5.89443L222.316 94.5605L258.949 96.7363L295.581 152.583L332.214 41.2521L368.846 111.605L405.478 51.7687" stroke="#344BCE"/>
<path d="M2.52166 16.1844C3.63812 16.1844 4.54318 14.6623 4.54318 12.7847C4.54318 10.907 3.63812 9.38488 2.52166 9.38488C1.40521 9.38488 0.500139 10.907 0.500139 12.7847C0.500139 14.6623 1.40521 16.1844 2.52166 16.1844Z" fill="white" stroke="#344BCE"/>
<path d="M39.1539 7.29968C40.2704 7.29968 41.1755 5.77755 41.1755 3.89991C41.1755 2.02227 40.2704 0.500139 39.1539 0.500139C38.0375 0.500139 37.1324 2.02227 37.1324 3.89991C37.1324 5.77755 38.0375 7.29968 39.1539 7.29968Z" fill="white" stroke="#344BCE"/>
<path d="M75.7867 124.071C76.9032 124.071 77.8082 122.548 77.8082 120.671C77.8082 118.793 76.9032 117.271 75.7867 117.271C74.6703 117.271 73.7652 118.793 73.7652 120.671C73.7652 122.548 74.6703 124.071 75.7867 124.071Z" fill="white" stroke="#344BCE"/>
<path d="M112.419 154.351C113.535 154.351 114.441 152.829 114.441 150.951C114.441 149.074 113.535 147.552 112.419 147.552C111.303 147.552 110.397 149.074 110.397 150.951C110.397 152.829 111.303 154.351 112.419 154.351Z" fill="white" stroke="#344BCE"/>
<path d="M149.051 177.742C150.168 177.742 151.073 176.219 151.073 174.342C151.073 172.464 150.168 170.942 149.051 170.942C147.935 170.942 147.03 172.464 147.03 174.342C147.03 176.219 147.935 177.742 149.051 177.742Z" fill="white" stroke="#344BCE"/>
<path d="M185.684 9.2942C186.8 9.2942 187.705 7.77207 187.705 5.89443C187.705 4.01678 186.8 2.49465 185.684 2.49465C184.567 2.49465 183.662 4.01678 183.662 5.89443C183.662 7.77207 184.567 9.2942 185.684 9.2942Z" fill="white" stroke="#344BCE"/>
<path d="M222.316 97.9603C223.433 97.9603 224.338 96.4381 224.338 94.5605C224.338 92.6829 223.433 91.1607 222.316 91.1607C221.2 91.1607 220.295 92.6829 220.295 94.5605C220.295 96.4381 221.2 97.9603 222.316 97.9603Z" fill="white" stroke="#344BCE"/>
<path d="M258.949 100.136C260.065 100.136 260.97 98.614 260.97 96.7363C260.97 94.8587 260.065 93.3366 258.949 93.3366C257.832 93.3366 256.927 94.8587 256.927 96.7363C256.927 98.614 257.832 100.136 258.949 100.136Z" fill="white" stroke="#344BCE"/>
<path d="M295.581 155.983C296.697 155.983 297.602 154.461 297.602 152.583C297.602 150.706 296.697 149.183 295.581 149.183C294.464 149.183 293.559 150.706 293.559 152.583C293.559 154.461 294.464 155.983 295.581 155.983Z" fill="white" stroke="#344BCE"/>
<path d="M332.214 44.6518C333.33 44.6518 334.235 43.1297 334.235 41.2521C334.235 39.3744 333.33 37.8523 332.214 37.8523C331.097 37.8523 330.192 39.3744 330.192 41.2521C330.192 43.1297 331.097 44.6518 332.214 44.6518Z" fill="white" stroke="#344BCE"/>
<path d="M368.846 115.004C369.962 115.004 370.867 113.482 370.867 111.605C370.867 109.727 369.962 108.205 368.846 108.205C367.73 108.205 366.824 109.727 366.824 111.605C366.824 113.482 367.73 115.004 368.846 115.004Z" fill="white" stroke="#344BCE"/>
<path d="M405.478 55.1685C406.595 55.1685 407.5 53.6464 407.5 51.7687C407.5 49.8911 406.595 48.369 405.478 48.369C404.362 48.369 403.457 49.8911 403.457 51.7687C403.457 53.6464 404.362 55.1685 405.478 55.1685Z" fill="white" stroke="#344BCE"/>
</svg>
