<svg width="24" height="24" viewBox="0 0 24 24" fill="none" xmlns="http://www.w3.org/2000/svg">
<path d="M19.8822 4.88129L19.1463 4.14535C18.9383 3.93736 18.5543 3.96937 18.3143 4.25731L15.7541 6.80128C14.602 6.30533 13.3382 6.06533 12.0101 6.06533C8.05798 6.08127 4.6342 8.38524 2.98608 11.6974C2.89006 11.9054 2.89006 12.1614 2.98608 12.3374C3.75402 13.9054 4.90609 15.2014 6.34609 16.1774L4.2501 18.3053C4.0101 18.5453 3.97809 18.9293 4.13813 19.1373L4.87408 19.8733C5.08207 20.0812 5.46606 20.0492 5.70606 19.7613L19.754 5.7134C20.058 5.47354 20.09 5.08958 19.882 4.88156L19.8822 4.88129ZM12.8581 9.71318C12.5861 9.64916 12.2981 9.5692 12.0261 9.5692C10.6661 9.5692 9.57818 10.6572 9.57818 12.0171C9.57818 12.2891 9.64219 12.5771 9.72215 12.8491L8.65003 13.9051C8.33008 13.3452 8.15409 12.7211 8.15409 12.0172C8.15409 9.88919 9.86611 8.17717 11.9941 8.17717C12.6982 8.17717 13.3221 8.35315 13.8821 8.67311L12.8581 9.71318Z" fill="#666666" fill-opacity="0.8"/>
<path d="M21.0342 11.6974C20.4742 10.5773 19.7381 9.56941 18.8262 8.75338L15.8502 11.6974V12.0173C15.8502 14.1453 14.1382 15.8573 12.0102 15.8573H11.6902L9.80225 17.7453C10.5063 17.8893 11.2422 17.9853 11.9623 17.9853C15.9144 17.9853 19.3382 15.6814 20.9863 12.3532C21.1302 12.1291 21.1302 11.9052 21.0342 11.6972L21.0342 11.6974Z" fill="#666666" fill-opacity="0.8"/>
</svg>
