<svg width="50" height="50" viewBox="0 0 50 50" fill="none" xmlns="http://www.w3.org/2000/svg">
<g clip-path="url(#clip0_1_2589)">
<path d="M11.4583 14.5833C11.4583 13.7626 11.62 12.9498 11.9341 12.1916C12.2482 11.4333 12.7085 10.7443 13.2889 10.1639C13.8693 9.58355 14.5583 9.12318 15.3166 8.80908C16.0748 8.49499 16.8876 8.33333 17.7083 8.33333C18.5291 8.33333 19.3418 8.49499 20.1001 8.80908C20.8584 9.12318 21.5474 9.58355 22.1278 10.1639C22.7081 10.7443 23.1685 11.4333 23.4826 12.1916C23.7967 12.9498 23.9583 13.7626 23.9583 14.5833C23.9583 16.2409 23.2999 17.8306 22.1278 19.0028C20.9556 20.1749 19.3659 20.8333 17.7083 20.8333C16.0507 20.8333 14.461 20.1749 13.2889 19.0028C12.1168 17.8306 11.4583 16.2409 11.4583 14.5833ZM17.7083 4.16666C14.9457 4.16666 12.2961 5.26413 10.3426 7.21764C8.38913 9.17114 7.29167 11.8207 7.29167 14.5833C7.29167 17.346 8.38913 19.9955 10.3426 21.949C12.2961 23.9025 14.9457 25 17.7083 25C20.471 25 23.1205 23.9025 25.074 21.949C27.0275 19.9955 28.125 17.346 28.125 14.5833C28.125 11.8207 27.0275 9.17114 25.074 7.21764C23.1205 5.26413 20.471 4.16666 17.7083 4.16666ZM32.2917 4.16666H30.2083V8.33333H32.2917C33.1124 8.33333 33.9252 8.49499 34.6834 8.80908C35.4417 9.12318 36.1307 9.58355 36.7111 10.1639C37.2915 10.7443 37.7518 11.4333 38.0659 12.1916C38.38 12.9498 38.5417 13.7626 38.5417 14.5833C38.5417 15.4041 38.38 16.2168 38.0659 16.9751C37.7518 17.7334 37.2915 18.4224 36.7111 19.0028C36.1307 19.5831 35.4417 20.0435 34.6834 20.3576C33.9252 20.6717 33.1124 20.8333 32.2917 20.8333H30.2083V25H32.2917C35.0543 25 37.7039 23.9025 39.6574 21.949C41.6109 19.9955 42.7083 17.346 42.7083 14.5833C42.7083 11.8207 41.6109 9.17114 39.6574 7.21764C37.7039 5.26413 35.0543 4.16666 32.2917 4.16666ZM0 39.5833C0 36.8207 1.09747 34.1711 3.05097 32.2176C5.00447 30.2641 7.65399 29.1667 10.4167 29.1667H25C27.7627 29.1667 30.4122 30.2641 32.3657 32.2176C34.3192 34.1711 35.4167 36.8207 35.4167 39.5833V43.75H31.25V39.5833C31.25 37.9257 30.5915 36.336 29.4194 35.1639C28.2473 33.9918 26.6576 33.3333 25 33.3333H10.4167C8.75906 33.3333 7.16935 33.9918 5.99725 35.1639C4.82515 36.336 4.16667 37.9257 4.16667 39.5833V43.75H0V39.5833ZM50 39.5833C50 38.2154 49.7306 36.8609 49.2071 35.597C48.6836 34.3332 47.9163 33.1849 46.949 32.2176C45.9818 31.2504 44.8334 30.4831 43.5696 29.9596C42.3058 29.4361 40.9513 29.1667 39.5833 29.1667H37.5V33.3333H39.5833C41.2409 33.3333 42.8306 33.9918 44.0028 35.1639C45.1749 36.336 45.8333 37.9257 45.8333 39.5833V43.75H50V39.5833Z" fill="black"/>
</g>
<defs>
<clipPath id="clip0_1_2589">
<rect width="50" height="50" fill="white"/>
</clipPath>
</defs>
</svg>
