<svg width="50" height="50" viewBox="0 0 50 50" fill="none" xmlns="http://www.w3.org/2000/svg">
<rect width="1440" height="3220" transform="translate(-967 -1402.9)" fill="white"/>
<rect width="1440" height="3220" transform="translate(-967 -1402.9)" fill="white"/>
<rect width="1440" height="3083" transform="translate(-967 -1402.9)" fill="white"/>
<rect width="1440" height="1071" transform="translate(-967 -428.9)" fill="#D8E4F3"/>
<g clip-path="url(#clip0_0_1)">
<rect width="574" height="527" transform="translate(-443 -142.9)" fill="white"/>
<g filter="url(#filter0_d_0_1)">
<rect width="574" height="527" transform="translate(-443 -142.9)" fill="#D8E4F3"/>
<path d="M130.385 -6.35217L130.434 -6.1325L130.607 -6.02266L130.434 -5.99415L130.41 -5.88433L130.116 -5.93884L130.042 -6.2415L130.188 -6.32451L130.287 -6.2415L130.385 -6.35217ZM130.827 -6.13335L131 -5.886L130.681 -5.69484L130.531 -5.85918L130.827 -6.13335ZM130.262 -6.71018L130.336 -6.57352L130.188 -6.43517L130.165 -6.65486L130.262 -6.71018ZM45.8369 -35.9289L46.7187 -35.6941L46.0302 -35.3755L45.7319 -34.4683L46.6295 -32.9927L45.942 -30.8127L46.8237 -30.2426L45.8969 -29.9407L45.1043 -29.1358L44.6709 -29.2876L43.5191 -28.6839L42.8165 -27.0917L42.279 -27.5613L40.6046 -28.0476L39.7829 -27.8966L38.4068 -28.8483L36.9116 -29.1501L36.299 -30.0388L36.5233 -32.0846L35.5524 -33.0899L35.5815 -33.9963L36.284 -33.5938L40.0811 -35.3386L41.3963 -35.2715L42.7424 -36.0597L44.2676 -35.8584L44.9852 -36.5803L45.6718 -36.5468L45.8369 -35.9289ZM-163.169 150.406L-162.521 151.475L-162.959 154.028L-162.22 156.014L-161.381 157.096L-159.398 158.51L-158.517 159.417L-157.221 160.004L-151.716 159.078L-148.495 159.724L-144.751 161.376L-142.952 161.856L-141.485 161.386L-137.791 158.648L-136.843 158.898L-135.778 158.531L-134.088 156.611L-132.196 155.426L-130.225 155.461L-128.974 155.547L-127.483 156.191L-126.28 156.782L-124.016 157.506L-123.117 157.21L-122.396 156.548L-118.725 153.964L-117.172 153.818L-116.542 153.927L-115.927 153.203L-117.194 151.129L-117.403 150.239L-116.846 149.826L-112.957 147.669L-110.044 146.813L-108.521 147.064L-106.096 146.517L-105.073 146.87L-103.386 148.1L-101.503 148.359L-100.594 148.85L-100.372 149.542L-100.769 151.92L-100.5 152.567L-99.8163 152.847L-97.9665 153.391L-96.6308 153.189L-93.9883 151.647L-92.9443 151.39L-91.5523 151.38L-86.9766 152.83L-85.3275 153.185L-82.5069 153.37L-83.2686 153.154V152.697L-83.8595 152.214L-84.0809 150.275L-83.3671 149.952L-82.8999 148.283L-81.9159 148.202V146.857L-81.4253 146.91L-80.8363 145.78L-81.2546 144.244L-80.098 141.899L-80.2218 140.66L-79.312 139.825L-79.6328 139.151L-79.3851 138.099L-79.0409 137.939L-79.6328 136.348L-78.7219 135.702L-78.9696 135.215L-78.1329 134.462L-77.813 134.623L-77.5916 133.49L-78.0831 132.843L-77.0251 131.574L-77.1976 130.44L-76.5589 129.982L-76.5091 129.065L-75.7728 128.228L-77.2718 127.958L-77.0757 127.283L-76.2399 127.066L-76.6564 125.961L-75.8459 125.339L-77.222 123.368L-77.2718 122.639L-75.921 121.99L-75.2812 120.585L-74.5205 120.424L-74.6922 119.991L-73.9549 118.775L-74.2982 117.775L-72.9953 116.748L-73.0197 116.018L-71.4222 114.125L-72.061 113.34L-71.5939 112.989L-71.5451 112.637L-72.061 112.34L-71.6914 112.205L-71.471 111.259L-72.7007 109.094L-72.6032 108.12L-73.5121 107.876L-73.71 107.227L-74.8629 107.471L-74.8882 108.255L-75.7249 109.391L-78.599 112.178L-78.6488 113.287L-82.5557 115.369L-82.7761 116.397L-83.5406 116.612L-85.9222 115.774L-86.3171 115.126L-85.6521 114.423L-86.168 113.99L-88.3564 114.504L-88.1838 113.881L-87.4953 113.584L-87.0798 112.907L-85.7759 113.178L-84.9392 113.096L-84.9626 112.744L-87.3968 111.96L-88.9718 112.934L-89.9042 111.554L-89.2907 109.606H-88.0609L-87.5947 108.957L-86.0451 108.469L-86.2177 107.253L-85.0865 106.36L-84.9899 105.873L-84.9157 105.06L-87.7401 102.975L-88.1848 102.027L-87.5957 100.618L-87.6182 99.5876L-88.1848 97.9351L-88.3574 97.6097L-89.4886 97.4194L-90.2747 96.0913L-90.0777 95.4952L-89.2916 95.3049L-88.9727 94.2208L-89.3892 93.1358L-88.9727 92.2949L-90.1265 91.075L-89.8554 89.4476L-89.3648 88.9864L-90.0045 87.6567L-89.5862 87.4395L-89.317 84.3717L-89.5618 83.3412L-88.726 81.7935L-88.801 80.9785L-87.2261 78.5605L-87.03 77.691H-86.5882L-85.0405 75.6804L-84.4993 74.0765L-84.7703 72.6629L-84.3754 70.3513L-84.7216 68.8002L-83.7122 67.9836L-83.6138 66.487L-83.0481 66.2966L-83.4899 65.6444H-83.8605L-84.1306 61.7783L-86.1211 59.7636L-86.6623 58.7289L-86.8349 57.2306L-86.2684 56.985L-86.637 54.8872L-86.1952 53.3328L-85.1868 52.3241L-84.4017 50.1433L-83.2939 49.3242L-82.0651 49.3787L-81.6955 47.9055L-80.8841 47.3589L-81.4019 45.2041L-80.8841 44.7673L-80.9104 44.0035L-81.672 42.7198L-81.7696 41.6282L-80.7884 40.7L-82.1373 38.7062L-82.6785 36.0014L-83.5143 35.1269L-83.6119 34.2801L-85.1849 32.7223L-85.9729 30.6983L-85.7525 30.1785L-86.3415 29.1128L-86.4138 28.484L-85.8988 28.0195L-86.3884 26.8985L-85.8744 23.3402L-86.9794 20.0275L-85.9964 18.4672L-86.0451 17.2892L-86.9072 14.9609L-86.2665 14.5224L-86.6351 13.4534L-86.44 12.412L-85.8491 12.0557L-85.3313 12.3567L-84.9392 12.1102L-85.5058 11.2332L-88.1838 9.47833L-88.2823 8.95684L-89.8545 7.72265L-90.028 6.73581L-89.5111 6.03657L-93.5146 6.6352L-95.2659 8.46299L-97.6035 9.24611L-100.232 11.3346L-101.692 13.1624V14.2071L-100.232 16.5564L-106.349 16.6914L-108.836 14.7907L-111.599 13.9279L-114.043 13.5951L-116.428 15.6995L-117.372 15.5385L-120.247 14.0755L-123.381 13.5112L-124.473 13.4886L-126.514 14.1107L-127.149 13.004L-128.762 12.4322L-129.632 12.9302L-131.484 16.0349L-132.361 17.0788H-136.158L-139.371 14.7295L-142 13.424L-143.891 13.5783L-144.496 15.5159L-144.399 17.5248L-144.738 18.1562L-145.44 18.4605L-146.805 17.6623L-148.31 17.3119L-150.106 17.5257L-152.991 15.7725L-154.086 15.5712L-155.278 16.6444L-156.149 17.3773L-156.586 17.1853L-157.454 16.9119L-158.157 17.1718L-159.51 18.9627L-160.288 19.3576L-160.866 19.5924L-163.946 22.3123L-166.569 22.9889L-167.305 24.0286L-167.74 24.8645L-170.623 26.3267L-170.707 27.0645L-172.097 28.2962L-173.578 31.0698L-174.36 32.3794L-174.408 33.4954L-173.178 34.006L-172.68 34.6876L-172.434 36.4441L-175.096 39.7048L-176.435 39.9538L-178.41 40.0813L-178.836 40.358L-179.702 41.2199L-181.987 41.1763L-183.526 41.541L-184.039 41.328L-185.009 38.9863L-186.373 37.2079L-189.403 35.6627L-190.51 34.0127L-191.524 35.08L-191.782 35.9327L-192.072 36.5615L-193.13 36.8499L-193.356 39.0156L-193.548 39.5547L-193.89 40.0285L-198.762 38.9435L-199.229 38.5737L-199.622 38.0472L-200.62 37.732L-201.191 38.256L-202.487 39.2168L-203.564 40.8417L-204.854 41.0002L-206.388 39.5371L-206.862 39.7928L-209.399 45.0985L-209.545 45.3894L-206.51 49.1137L-206.368 49.7778L-207.482 49.8658L-210.674 49.0165L-211.779 48.4598L-212.911 48.9494L-214.961 48.0992L-216.014 47.5853L-217.107 49.5422L-218.704 50.7076L-220.205 51.5813L-222.081 51.6861L-222.684 51.8982L-224.26 53.8853L-223.808 55.7458L-224.226 56.3302L-226.293 57.9265L-226.835 58.5378L-227.718 59.7996L-228.48 59.8373L-229.943 60.1316L-230.71 60.9701L-230.869 61.7272L-230.187 62.6461L-225.165 63.5935L-224.025 64.6148L-224.159 65.3937L-223.797 66.6974L-223.255 67.0412L-221.72 67.6105L-221.375 68.1823L-221.771 69.6085L-221.888 70.078L-223.659 70.3564L-224.061 71.474L-223.785 74.4848L-224.416 76.736L-223.859 77.7237L-223.858 78.8078L-225.059 80.4948L-223.827 83.2171L-223.364 83.4737L-224.301 85.6184L-226.792 87.5502L-226.856 91.1353L-226.511 91.7918L-224.84 92.6227L-223.113 91.7256L-222.026 90.4662L-221.645 90.4813L-221.211 91.6895L-219.114 92.3561L-218.872 92.9279L-218.785 93.3463L-217.866 93.6154L-217.14 94.2426L-216.826 94.6559L-216.041 94.5746L-214.181 93.8737L-212.091 93.2138L-210.2 93.7965L-209.619 94.6911L-209.952 95.5833L-209.478 97.3431L-208.944 98.4373L-208.298 98.9102L-208.383 99.5759L-209.462 100.039L-211.777 98.8011L-214.03 99.9942L-215.137 101.451L-215.061 102.446L-214.034 103.928L-214.514 105.107L-214.419 106.916L-216.062 108.141L-215.892 108.91L-216.822 110.318L-217.035 112.022L-218.757 114.197L-219.461 114.473L-220.285 113.917L-221.449 114.115L-222.463 115.012L-219.201 119.752L-218.047 122.521L-218.302 124.835L-219.252 126.714L-219.132 128.335L-218.596 129.06L-217.53 129.811L-216.067 129.801L-215.405 130.106L-215.116 132.288L-214.232 132.76L-212.227 133.035L-210.564 133.216L-210.017 134.16L-208.939 134.691L-204.78 135.347L-202.391 135.125L-200.995 135.754L-199.55 136.38L-199.09 136.998L-198.36 139.403L-197.742 139.817L-195.808 140.645L-195.189 141.607L-195.407 142.118L-193.047 143.367L-192.165 144.866L-192.395 146.714L-194.095 150.039L-194.345 151.426L-193.516 152.795L-189.957 154.042L-187.857 153.787L-186.741 153.527L-183.972 152.615L-181.916 153.523L-179.769 153.751L-177.673 155.576L-176.071 156.619L-176.758 153.751L-180.555 149.574L-180.263 147.224L-178.51 147.746L-177.05 148.79H-175.006L-174.421 146.702L-177.342 143.83L-176.174 141.219L-175.005 138.87L-170.039 138.087L-170.332 136.52L-172.96 134.692L-177.341 134.43L-177.049 131.82L-175.881 129.47L-173.836 126.86L-171.791 126.338L-170.038 125.293L-169.455 129.993H-167.117L-166.241 127.383L-163.903 123.205L-158.355 122.162L-155.726 119.551L-152.514 118.767L-149.594 119.028L-146.088 121.639V125.293L-145.504 127.903L-143.752 131.297L-144.628 133.126L-147.841 134.17L-149.302 137.041V139.651L-151.639 139.914V141.481L-150.47 142.786V146.18L-153.684 147.224L-155.144 148.79L-157.772 148.528L-158.358 146.18H-161.278L-163.322 147.223L-164.783 149.312L-164.36 150.572L-164.079 150.39L-163.169 150.406Z" fill="#306FC1" stroke="white" stroke-width="0.5"/>
</g>
</g>
<rect x="-15.5" y="-15.6" width="81" height="81" rx="40.5" fill="white"/>
<rect x="-15.5" y="-15.6" width="81" height="81" rx="40.5" stroke="black"/>
<path d="M39.5833 6.25H10.4167C8.125 6.25 6.25 8.125 6.25 10.4167V39.5833C6.25 41.875 8.125 43.75 10.4167 43.75H39.5833C41.875 43.75 43.75 41.875 43.75 39.5833V10.4167C43.75 8.125 41.875 6.25 39.5833 6.25ZM39.5833 39.5833H10.4167V10.4167H39.5833V39.5833Z" fill="black"/>
<path d="M14.583 25H18.7497V35.4167H14.583V25ZM31.2497 14.5833H35.4163V35.4167H31.2497V14.5833ZM22.9163 29.1667H27.083V35.4167H22.9163V29.1667ZM22.9163 20.8333H27.083V25H22.9163V20.8333Z" fill="black"/>
<defs>
<filter id="filter0_d_0_1" x="-447.404" y="-143.241" width="582.764" height="535.63" filterUnits="userSpaceOnUse" color-interpolation-filters="sRGB">
<feFlood flood-opacity="0" result="BackgroundImageFix"/>
<feColorMatrix in="SourceAlpha" type="matrix" values="0 0 0 0 0 0 0 0 0 0 0 0 0 0 0 0 0 0 127 0" result="hardAlpha"/>
<feOffset dy="4"/>
<feGaussianBlur stdDeviation="2"/>
<feComposite in2="hardAlpha" operator="out"/>
<feColorMatrix type="matrix" values="0 0 0 0 0 0 0 0 0 0 0 0 0 0 0 0 0 0 0.25 0"/>
<feBlend mode="normal" in2="BackgroundImageFix" result="effect1_dropShadow_0_1"/>
<feBlend mode="normal" in="SourceGraphic" in2="effect1_dropShadow_0_1" result="shape"/>
</filter>
<clipPath id="clip0_0_1">
<rect width="574" height="527" fill="white" transform="translate(-443 -142.9)"/>
</clipPath>
</defs>
</svg>
