<svg width="38" height="38" viewBox="0 0 38 38" fill="none" xmlns="http://www.w3.org/2000/svg">
<path d="M16.5479 14.0421H14.1015L15.8314 15.7719L19.3131 19.2536L19.2532 19.3135L15.772 15.8315L14.0421 14.1011V16.5479V19.9869H13.9576V13.9576H19.9869V14.0421H16.5479ZM1.01333 1.05556C1.01333 1.04436 1.01778 1.03362 1.0257 1.0257C1.03362 1.01778 1.04436 1.01333 1.05556 1.01333H10.5556C10.5668 1.01333 10.5775 1.01778 10.5854 1.0257L11.3019 0.309165L10.5854 1.0257C10.5933 1.03362 10.5978 1.04436 10.5978 1.05556V10.5556C10.5978 10.5668 10.5933 10.5775 10.5854 10.5854L11.3019 11.3019L10.5854 10.5854C10.5775 10.5933 10.5668 10.5978 10.5556 10.5978H1.05556C1.04436 10.5978 1.03362 10.5933 1.0257 10.5854C1.01778 10.5775 1.01333 10.5668 1.01333 10.5556V1.05556ZM27.4022 27.4444C27.4022 27.4332 27.4067 27.4225 27.4146 27.4146C27.4225 27.4067 27.4332 27.4022 27.4444 27.4022H36.9444C36.9556 27.4022 36.9664 27.4067 36.9743 27.4146C36.9822 27.4225 36.9867 27.4332 36.9867 27.4444V36.9444C36.9867 36.9556 36.9822 36.9664 36.9743 36.9743C36.9664 36.9822 36.9556 36.9867 36.9444 36.9867H27.4444C27.4333 36.9867 27.4225 36.9822 27.4146 36.9743C27.4067 36.9664 27.4022 36.9556 27.4022 36.9444V27.4444ZM22.3852 22.3257L24.313 24.2535L24.2535 24.313L22.3257 22.3852L22.3852 22.3257Z" fill="white" stroke="black" stroke-width="2"/>
</svg>
