<svg width="391" height="202" viewBox="0 0 391 202" fill="none" xmlns="http://www.w3.org/2000/svg">
<path d="M1.94237 128.828L37.1348 164.224L72.3272 85.1048L107.52 143.403L142.712 120.5L177.904 91.3511L213.097 116.336L248.289 189.209L283.482 37.2171L318.674 3.90391L353.866 68.4482L389.059 26.8067V201.701H353.866H318.674H283.482H248.289H213.097H177.904H142.712H107.52H72.3272H37.1348H1.94237V128.828Z" fill="#6BCD2C" fill-opacity="0.6"/>
<path d="M1.94206 132.732C3.01462 132.732 3.88411 130.984 3.88411 128.828C3.88411 126.672 3.01462 124.924 1.94206 124.924C0.869488 124.924 0 126.672 0 128.828C0 130.984 0.869488 132.732 1.94206 132.732Z" fill="#6BCD2C" fill-opacity="0.6"/>
<path d="M37.1344 168.128C38.2069 168.128 39.0764 166.38 39.0764 164.224C39.0764 162.068 38.2069 160.32 37.1344 160.32C36.0618 160.32 35.1923 162.068 35.1923 164.224C35.1923 166.38 36.0618 168.128 37.1344 168.128Z" fill="#6BCD2C" fill-opacity="0.6"/>
<path d="M72.3266 89.0087C73.3992 89.0087 74.2687 87.2609 74.2687 85.1048C74.2687 82.9487 73.3992 81.2009 72.3266 81.2009C71.2541 81.2009 70.3846 82.9487 70.3846 85.1048C70.3846 87.2609 71.2541 89.0087 72.3266 89.0087Z" fill="#6BCD2C" fill-opacity="0.6"/>
<path d="M107.519 147.307C108.592 147.307 109.461 145.559 109.461 143.403C109.461 141.247 108.592 139.499 107.519 139.499C106.446 139.499 105.577 141.247 105.577 143.403C105.577 145.559 106.446 147.307 107.519 147.307Z" fill="#6BCD2C" fill-opacity="0.6"/>
<path d="M142.711 124.404C143.784 124.404 144.653 122.656 144.653 120.5C144.653 118.344 143.784 116.596 142.711 116.596C141.639 116.596 140.769 118.344 140.769 120.5C140.769 122.656 141.639 124.404 142.711 124.404Z" fill="#6BCD2C" fill-opacity="0.6"/>
<path d="M177.904 95.2549C178.976 95.2549 179.846 93.5071 179.846 91.351C179.846 89.195 178.976 87.4471 177.904 87.4471C176.831 87.4471 175.961 89.195 175.961 91.351C175.961 93.5071 176.831 95.2549 177.904 95.2549Z" fill="#6BCD2C" fill-opacity="0.6"/>
<path d="M213.097 120.24C214.169 120.24 215.039 118.492 215.039 116.336C215.039 114.18 214.169 112.432 213.097 112.432C212.024 112.432 211.155 114.18 211.155 116.336C211.155 118.492 212.024 120.24 213.097 120.24Z" fill="#6BCD2C" fill-opacity="0.6"/>
<path d="M248.289 193.112C249.362 193.112 250.231 191.365 250.231 189.209C250.231 187.052 249.362 185.305 248.289 185.305C247.217 185.305 246.347 187.052 246.347 189.209C246.347 191.365 247.217 193.112 248.289 193.112Z" fill="#6BCD2C" fill-opacity="0.6"/>
<path d="M283.481 41.121C284.554 41.121 285.423 39.3732 285.423 37.2171C285.423 35.0611 284.554 33.3132 283.481 33.3132C282.409 33.3132 281.539 35.0611 281.539 37.2171C281.539 39.3732 282.409 41.121 283.481 41.121Z" fill="#6BCD2C" fill-opacity="0.6"/>
<path d="M318.674 7.80778C319.746 7.80778 320.616 6.05995 320.616 3.90389C320.616 1.74783 319.746 0 318.674 0C317.601 0 316.732 1.74783 316.732 3.90389C316.732 6.05995 317.601 7.80778 318.674 7.80778Z" fill="#6BCD2C" fill-opacity="0.6"/>
<path d="M353.866 72.3521C354.939 72.3521 355.808 70.6043 355.808 68.4482C355.808 66.2921 354.939 64.5443 353.866 64.5443C352.793 64.5443 351.924 66.2921 351.924 68.4482C351.924 70.6043 352.793 72.3521 353.866 72.3521Z" fill="#6BCD2C" fill-opacity="0.6"/>
<path d="M389.058 30.7106C390.131 30.7106 391 28.9628 391 26.8067C391 24.6507 390.131 22.9028 389.058 22.9028C387.986 22.9028 387.116 24.6507 387.116 26.8067C387.116 28.9628 387.986 30.7106 389.058 30.7106Z" fill="#6BCD2C" fill-opacity="0.6"/>
</svg>
