<svg width="65" height="52" viewBox="0 0 65 52" fill="none" xmlns="http://www.w3.org/2000/svg">
<path fill-rule="evenodd" clip-rule="evenodd" d="M46.1253 5.34923C46.3145 5.50018 46.4646 5.6795 46.567 5.87692C46.6694 6.07434 46.7221 6.28599 46.7221 6.49973C46.7221 6.71347 46.6694 6.92512 46.567 7.12254C46.4646 7.31996 46.3145 7.49928 46.1253 7.65023L23.1844 25.9997L46.1253 44.3492C46.5068 44.6544 46.721 45.0682 46.721 45.4997C46.721 45.9313 46.5068 46.3451 46.1253 46.6502C45.7439 46.9554 45.2266 47.1268 44.6872 47.1268C44.1478 47.1268 43.6305 46.9554 43.2491 46.6502L18.8741 27.1502C18.6849 26.9993 18.5349 26.82 18.4325 26.6225C18.3301 26.4251 18.2773 26.2135 18.2773 25.9997C18.2773 25.786 18.3301 25.5743 18.4325 25.3769C18.5349 25.1795 18.6849 25.0002 18.8741 24.8492L43.2491 5.34923C43.4378 5.1979 43.6619 5.07784 43.9087 4.99592C44.1555 4.91399 44.42 4.87183 44.6872 4.87183C44.9544 4.87183 45.219 4.91399 45.4657 4.99592C45.7125 5.07784 45.9367 5.1979 46.1253 5.34923Z" fill="black"/>
</svg>
