<svg width="391" height="194" viewBox="0 0 391 194" fill="none" xmlns="http://www.w3.org/2000/svg">
<path d="M1.94237 24.7247L37.1348 141.321L72.3272 89.269L107.52 3.90391L142.712 72.6124L177.904 47.6275L213.097 126.746L248.289 112.172L283.482 76.7765L318.674 182.962L353.866 124.664L389.059 91.3511V193.373H353.866H318.674H283.482H248.289H213.097H177.904H142.712H107.52H72.3272H37.1348H1.94237V24.7247Z" fill="#FA8F75" fill-opacity="0.6"/>
<path d="M1.94206 28.6285C3.01462 28.6285 3.88411 26.8807 3.88411 24.7246C3.88411 22.5686 3.01462 20.8207 1.94206 20.8207C0.869488 20.8207 0 22.5686 0 24.7246C0 26.8807 0.869488 28.6285 1.94206 28.6285Z" fill="#FA8F75" fill-opacity="0.6"/>
<path d="M37.1344 145.225C38.2069 145.225 39.0764 143.477 39.0764 141.321C39.0764 139.165 38.2069 137.417 37.1344 137.417C36.0618 137.417 35.1923 139.165 35.1923 141.321C35.1923 143.477 36.0618 145.225 37.1344 145.225Z" fill="#FA8F75" fill-opacity="0.6"/>
<path d="M72.3266 93.1728C73.3992 93.1728 74.2687 91.425 74.2687 89.2689C74.2687 87.1129 73.3992 85.365 72.3266 85.365C71.2541 85.365 70.3846 87.1129 70.3846 89.2689C70.3846 91.425 71.2541 93.1728 72.3266 93.1728Z" fill="#FA8F75" fill-opacity="0.6"/>
<path d="M107.519 7.80778C108.592 7.80778 109.461 6.05995 109.461 3.90389C109.461 1.74783 108.592 0 107.519 0C106.446 0 105.577 1.74783 105.577 3.90389C105.577 6.05995 106.446 7.80778 107.519 7.80778Z" fill="#FA8F75" fill-opacity="0.6"/>
<path d="M142.711 76.5163C143.784 76.5163 144.653 74.7684 144.653 72.6124C144.653 70.4563 143.784 68.7085 142.711 68.7085C141.639 68.7085 140.769 70.4563 140.769 72.6124C140.769 74.7684 141.639 76.5163 142.711 76.5163Z" fill="#FA8F75" fill-opacity="0.6"/>
<path d="M177.904 51.5313C178.976 51.5313 179.846 49.7835 179.846 47.6275C179.846 45.4714 178.976 43.7236 177.904 43.7236C176.831 43.7236 175.961 45.4714 175.961 47.6275C175.961 49.7835 176.831 51.5313 177.904 51.5313Z" fill="#FA8F75" fill-opacity="0.6"/>
<path d="M213.097 130.65C214.169 130.65 215.039 128.902 215.039 126.746C215.039 124.59 214.169 122.842 213.097 122.842C212.024 122.842 211.155 124.59 211.155 126.746C211.155 128.902 212.024 130.65 213.097 130.65Z" fill="#FA8F75" fill-opacity="0.6"/>
<path d="M248.289 116.076C249.362 116.076 250.231 114.328 250.231 112.172C250.231 110.016 249.362 108.268 248.289 108.268C247.217 108.268 246.347 110.016 246.347 112.172C246.347 114.328 247.217 116.076 248.289 116.076Z" fill="#FA8F75" fill-opacity="0.6"/>
<path d="M283.481 80.6804C284.554 80.6804 285.423 78.9326 285.423 76.7765C285.423 74.6204 284.554 72.8726 283.481 72.8726C282.409 72.8726 281.539 74.6204 281.539 76.7765C281.539 78.9326 282.409 80.6804 283.481 80.6804Z" fill="#FA8F75" fill-opacity="0.6"/>
<path d="M318.674 186.866C319.746 186.866 320.616 185.118 320.616 182.962C320.616 180.806 319.746 179.058 318.674 179.058C317.601 179.058 316.732 180.806 316.732 182.962C316.732 185.118 317.601 186.866 318.674 186.866Z" fill="#FA8F75" fill-opacity="0.6"/>
<path d="M353.866 128.568C354.939 128.568 355.808 126.82 355.808 124.664C355.808 122.508 354.939 120.76 353.866 120.76C352.793 120.76 351.924 122.508 351.924 124.664C351.924 126.82 352.793 128.568 353.866 128.568Z" fill="#FA8F75" fill-opacity="0.6"/>
<path d="M389.058 95.2549C390.131 95.2549 391 93.5071 391 91.351C391 89.195 390.131 87.4471 389.058 87.4471C387.986 87.4471 387.116 89.195 387.116 91.351C387.116 93.5071 387.986 95.2549 389.058 95.2549Z" fill="#FA8F75" fill-opacity="0.6"/>
</svg>
