<svg width="391" height="198" viewBox="0 0 391 198" fill="none" xmlns="http://www.w3.org/2000/svg">
<path d="M1.94237 3.90391L37.1348 135.075L72.3272 10.1501L107.52 176.716L142.712 76.7765L177.904 151.731L213.097 60.1199L248.289 187.126L283.482 164.224L318.674 103.844L353.866 60.1199L389.059 118.418V197.537H353.866H318.674H283.482H248.289H213.097H177.904H142.712H107.52H72.3272H37.1348H1.94237V3.90391Z" fill="#60139B" fill-opacity="0.6"/>
<path d="M1.94206 7.80778C3.01462 7.80778 3.88411 6.05995 3.88411 3.90389C3.88411 1.74783 3.01462 0 1.94206 0C0.869488 0 0 1.74783 0 3.90389C0 6.05995 0.869488 7.80778 1.94206 7.80778Z" fill="#60139B" fill-opacity="0.6"/>
<path d="M37.1344 138.978C38.2069 138.978 39.0764 137.231 39.0764 135.075C39.0764 132.919 38.2069 131.171 37.1344 131.171C36.0618 131.171 35.1923 132.919 35.1923 135.075C35.1923 137.231 36.0618 138.978 37.1344 138.978Z" fill="#60139B" fill-opacity="0.6"/>
<path d="M72.3266 14.054C73.3992 14.054 74.2687 12.3062 74.2687 10.1501C74.2687 7.99405 73.3992 6.24621 72.3266 6.24621C71.2541 6.24621 70.3846 7.99405 70.3846 10.1501C70.3846 12.3062 71.2541 14.054 72.3266 14.054Z" fill="#60139B" fill-opacity="0.6"/>
<path d="M107.519 180.62C108.592 180.62 109.461 178.872 109.461 176.716C109.461 174.56 108.592 172.812 107.519 172.812C106.446 172.812 105.577 174.56 105.577 176.716C105.577 178.872 106.446 180.62 107.519 180.62Z" fill="#60139B" fill-opacity="0.6"/>
<path d="M142.711 80.6804C143.784 80.6804 144.653 78.9326 144.653 76.7765C144.653 74.6204 143.784 72.8726 142.711 72.8726C141.639 72.8726 140.769 74.6204 140.769 76.7765C140.769 78.9326 141.639 80.6804 142.711 80.6804Z" fill="#60139B" fill-opacity="0.6"/>
<path d="M177.904 155.635C178.976 155.635 179.846 153.887 179.846 151.731C179.846 149.575 178.976 147.827 177.904 147.827C176.831 147.827 175.961 149.575 175.961 151.731C175.961 153.887 176.831 155.635 177.904 155.635Z" fill="#60139B" fill-opacity="0.6"/>
<path d="M213.097 64.0238C214.169 64.0238 215.039 62.2759 215.039 60.1199C215.039 57.9638 214.169 56.216 213.097 56.216C212.024 56.216 211.155 57.9638 211.155 60.1199C211.155 62.2759 212.024 64.0238 213.097 64.0238Z" fill="#60139B" fill-opacity="0.6"/>
<path d="M248.289 191.03C249.362 191.03 250.231 189.283 250.231 187.126C250.231 184.97 249.362 183.223 248.289 183.223C247.217 183.223 246.347 184.97 246.347 187.126C246.347 189.283 247.217 191.03 248.289 191.03Z" fill="#60139B" fill-opacity="0.6"/>
<path d="M283.481 168.128C284.554 168.128 285.423 166.38 285.423 164.224C285.423 162.068 284.554 160.32 283.481 160.32C282.409 160.32 281.539 162.068 281.539 164.224C281.539 166.38 282.409 168.128 283.481 168.128Z" fill="#60139B" fill-opacity="0.6"/>
<path d="M318.674 107.747C319.746 107.747 320.616 106 320.616 103.844C320.616 101.687 319.746 99.9396 318.674 99.9396C317.601 99.9396 316.732 101.687 316.732 103.844C316.732 106 317.601 107.747 318.674 107.747Z" fill="#60139B" fill-opacity="0.6"/>
<path d="M353.866 64.0238C354.939 64.0238 355.808 62.2759 355.808 60.1199C355.808 57.9638 354.939 56.216 353.866 56.216C352.793 56.216 351.924 57.9638 351.924 60.1199C351.924 62.2759 352.793 64.0238 353.866 64.0238Z" fill="#60139B" fill-opacity="0.6"/>
<path d="M389.058 122.322C390.131 122.322 391 120.574 391 118.418C391 116.262 390.131 114.514 389.058 114.514C387.986 114.514 387.116 116.262 387.116 118.418C387.116 120.574 387.986 122.322 389.058 122.322Z" fill="#60139B" fill-opacity="0.6"/>
</svg>
