<svg width="847" height="129" viewBox="0 0 847 129" fill="none" xmlns="http://www.w3.org/2000/svg">
<path d="M0 108.448H25.4774V128.179H0V108.448Z" fill="#1876EF"/>
<path d="M74.6842 38.8533H100.162V128.179H74.6842V38.8533Z" fill="#1876EF"/>
<path d="M149.367 59.0391H174.845V128.179H149.367V59.0391Z" fill="#1876EF"/>
<path d="M224.052 65.0017H249.529V128.179H224.052V65.0017Z" fill="#1876EF"/>
<path d="M298.735 80.8448H324.212V128.179H298.735V80.8448Z" fill="#1876EF"/>
<path d="M373.419 83.0235H398.897V128.179H373.419V83.0235Z" fill="#1876EF"/>
<path d="M448.103 71.8477H473.581V128.179H448.103V71.8477Z" fill="#1876EF"/>
<path d="M522.787 0H548.264V128.179H522.787V0Z" fill="#1876EF"/>
<path d="M597.471 19.7532H622.948V128.179H597.471V19.7532Z" fill="#1876EF"/>
<path d="M672.155 72.0899H697.632V128.179H672.155V72.0899Z" fill="#1876EF"/>
<path d="M746.838 64.7517H772.316V128.179H746.838V64.7517Z" fill="#1876EF"/>
<path d="M821.523 10.5801H847V128.179H821.523V10.5801Z" fill="#1876EF"/>
</svg>
