<svg width="34" height="34" viewBox="0 0 34 34" fill="none" xmlns="http://www.w3.org/2000/svg">
<path d="M17 0C7.63302 0 0 7.63302 0 17C0 26.3671 7.63302 34.0001 17 34.0001C26.3671 34.0001 34.0001 26.3671 34.0001 17C34.0001 7.63302 26.3671 0 17 0ZM25.1261 13.09L15.487 22.7291C15.249 22.9671 14.926 23.1031 14.586 23.1031C14.246 23.1031 13.923 22.9671 13.685 22.7291L8.87402 17.918C8.38102 17.425 8.38102 16.609 8.87402 16.116C9.36702 15.623 10.183 15.623 10.676 16.116L14.586 20.026L23.3241 11.288C23.8171 10.795 24.6331 10.795 25.1261 11.288C25.6191 11.781 25.6191 12.58 25.1261 13.09Z" fill="#23A26D"/>
</svg>
