<svg width="847" height="159" viewBox="0 0 847 159" fill="none" xmlns="http://www.w3.org/2000/svg">
<path d="M0 69.563H25.4774V158.597H0V69.563Z" fill="#F3102B"/>
<path d="M74.6842 4.81597H100.162V158.597H74.6842V4.81597Z" fill="#F3102B"/>
<path d="M149.367 51.5822H174.845V158.597H149.367V51.5822Z" fill="#F3102B"/>
<path d="M224.052 4.69706H249.529V158.597H224.052V4.69706Z" fill="#F3102B"/>
<path d="M298.735 151.165H324.212V158.597H298.735V151.165Z" fill="#F3102B"/>
<path d="M373.419 74.4777H398.897V158.597H373.419V74.4777Z" fill="#F3102B"/>
<path d="M448.103 152.305H473.581V158.597H448.103V152.305Z" fill="#F3102B"/>
<path d="M522.787 0H548.264V158.597H522.787V0Z" fill="#F3102B"/>
<path d="M597.471 89.4115H622.948V158.597H597.471V89.4115Z" fill="#F3102B"/>
<path d="M672.155 99.1765H697.632V158.597H672.155V99.1765Z" fill="#F3102B"/>
<path d="M746.838 97.4524H772.316V158.597H746.838V97.4524Z" fill="#F3102B"/>
<path d="M821.523 126.249H847V158.597H821.523V126.249Z" fill="#F3102B"/>
</svg>
