<svg width="12" height="12" viewBox="0 0 12 12" fill="none" xmlns="http://www.w3.org/2000/svg">
<path d="M4 3.5C3.86739 3.5 3.74021 3.55268 3.64645 3.64645C3.55268 3.74021 3.5 3.86739 3.5 4V8C3.5 8.13261 3.55268 8.25979 3.64645 8.35355C3.74021 8.44732 3.86739 8.5 4 8.5H8C8.13261 8.5 8.25979 8.44732 8.35355 8.35355C8.44732 8.25979 8.5 8.13261 8.5 8V7.75C8.5 7.55109 8.57902 7.36032 8.71967 7.21967C8.86032 7.07902 9.05109 7 9.25 7C9.44891 7 9.63968 7.07902 9.78033 7.21967C9.92098 7.36032 10 7.55109 10 7.75V8C10 8.53043 9.78929 9.03914 9.41421 9.41421C9.03914 9.78929 8.53043 10 8 10H4C3.46957 10 2.96086 9.78929 2.58579 9.41421C2.21071 9.03914 2 8.53043 2 8V4C2 3.46957 2.21071 2.96086 2.58579 2.58579C2.96086 2.21071 3.46957 2 4 2H4.25C4.44891 2 4.63968 2.07902 4.78033 2.21967C4.92098 2.36032 5 2.55109 5 2.75C5 2.94891 4.92098 3.13968 4.78033 3.28033C4.63968 3.42098 4.44891 3.5 4.25 3.5H4ZM6.75 3.5C6.55109 3.5 6.36032 3.42098 6.21967 3.28033C6.07902 3.13968 6 2.94891 6 2.75C6 2.55109 6.07902 2.36032 6.21967 2.21967C6.36032 2.07902 6.55109 2 6.75 2H9.25C9.44891 2 9.63968 2.07902 9.78033 2.21967C9.92098 2.36032 10 2.55109 10 2.75V5.25C10 5.44891 9.92098 5.63968 9.78033 5.78033C9.63968 5.92098 9.44891 6 9.25 6C9.05109 6 8.86032 5.92098 8.71967 5.78033C8.57902 5.63968 8.5 5.44891 8.5 5.25V4.56L7.28 5.78C7.13783 5.91248 6.94978 5.9846 6.75548 5.98117C6.56118 5.97775 6.37579 5.89903 6.23838 5.76162C6.10097 5.62421 6.02225 5.43882 6.01883 5.24452C6.0154 5.05022 6.08752 4.86217 6.22 4.72L7.44 3.5H6.75Z" fill="black"/>
</svg>
