<svg width="20" height="20" viewBox="0 0 20 20" fill="none" xmlns="http://www.w3.org/2000/svg">
<g clip-path="url(#clip0_234_4025)">
<path d="M13.3336 4.99999V4.33333C13.3336 3.39991 13.3336 2.9332 13.152 2.57668C12.9922 2.26308 12.7372 2.00811 12.4236 1.84832C12.0671 1.66667 11.6004 1.66667 10.667 1.66667H9.33363C8.40021 1.66667 7.93351 1.66667 7.57699 1.84832C7.26338 2.00811 7.00842 2.26308 6.84863 2.57668C6.66697 2.9332 6.66697 3.39991 6.66697 4.33333V4.99999M8.33364 9.58331V13.75M11.667 9.58331V13.75M2.50032 4.99999H17.5003M15.8336 4.99999V14.3333C15.8336 15.7334 15.8336 16.4335 15.5611 16.9683C15.3214 17.4387 14.939 17.8211 14.4686 18.0608C13.9338 18.3333 13.2338 18.3333 11.8336 18.3333H8.16697C6.76684 18.3333 6.06678 18.3333 5.532 18.0608C5.0616 17.8211 4.67915 17.4387 4.43946 16.9683C4.16698 16.4335 4.16698 15.7334 4.16698 14.3333V4.99999" stroke="#344054" stroke-width="1.60266" stroke-linecap="round" stroke-linejoin="round"/>
</g>
<defs>
<clipPath id="clip0_234_4025">
<rect width="19.2319" height="19.2319" fill="white" transform="scale(1.03994)"/>
</clipPath>
</defs>
</svg>
