<svg width="32" height="31" viewBox="0 0 32 31" fill="none" xmlns="http://www.w3.org/2000/svg">
<mask id="path-1-inside-1_1_2581" fill="white">
<path d="M27.1137 11.0714L31.0271 13.2857L29.8974 15.2033L25.984 12.989L27.1137 11.0714ZM27.1137 6.64286H31.6327V8.85714H27.1137V6.64286ZM5.64869 12.989L1.73528 15.2033L0.605539 13.2857L4.51895 11.0714L5.64869 12.989ZM27.1137 31H24.8542V25.4643C24.8524 23.9967 24.2567 22.5897 23.1978 21.5519C22.1388 20.5141 20.7031 19.9303 19.2055 19.9286H12.4271C10.9295 19.9303 9.49382 20.5141 8.43487 21.5519C7.37592 22.5897 6.78022 23.9967 6.77843 25.4643V31H4.51895V25.4643C4.52194 23.4098 5.35608 21.4402 6.8385 19.9874C8.32092 18.5347 10.3307 17.7172 12.4271 17.7143H19.2055C21.302 17.7172 23.3117 18.5347 24.7942 19.9874C26.2766 21.4402 27.1107 23.4098 27.1137 25.4643V31ZM15.8163 2.21429C16.9335 2.21429 18.0256 2.53895 18.9546 3.14722C19.8835 3.75549 20.6075 4.62005 21.035 5.63157C21.4626 6.64309 21.5744 7.75614 21.3565 8.82996C21.1385 9.90379 20.6005 10.8902 19.8106 11.6643C19.0206 12.4385 18.0141 12.9658 16.9183 13.1793C15.8226 13.3929 14.6868 13.2833 13.6547 12.8643C12.6225 12.4453 11.7403 11.7358 11.1196 10.8255C10.4989 9.91513 10.1676 8.84486 10.1676 7.75C10.1676 6.28184 10.7628 4.87381 11.8221 3.83566C12.8814 2.79751 14.3182 2.21429 15.8163 2.21429ZM15.8163 0C14.2522 0 12.7233 0.45453 11.4228 1.30611C10.1223 2.15769 9.10869 3.36808 8.51014 4.7842C7.91159 6.20033 7.75498 7.7586 8.06012 9.26195C8.36526 10.7653 9.11843 12.1462 10.2244 13.2301C11.3304 14.3139 12.7395 15.052 14.2735 15.3511C15.8076 15.6501 17.3976 15.4966 18.8426 14.9101C20.2877 14.3235 21.5228 13.3301 22.3917 12.0557C23.2607 10.7812 23.7245 9.28281 23.7245 7.75C23.7245 5.69457 22.8913 3.72333 21.4082 2.26992C19.9252 0.816515 17.9137 0 15.8163 0ZM25.984 2.511L29.8974 0.296714L31.0271 2.21429L27.1137 4.42857L25.984 2.511ZM0 6.64286H4.51895V8.85714H0V6.64286ZM4.51895 4.42857L0.605539 2.21429L1.73528 0.296714L5.64869 2.511L4.51895 4.42857Z"/>
</mask>
<path d="M27.1137 11.0714L31.0271 13.2857L29.8974 15.2033L25.984 12.989L27.1137 11.0714ZM27.1137 6.64286H31.6327V8.85714H27.1137V6.64286ZM5.64869 12.989L1.73528 15.2033L0.605539 13.2857L4.51895 11.0714L5.64869 12.989ZM27.1137 31H24.8542V25.4643C24.8524 23.9967 24.2567 22.5897 23.1978 21.5519C22.1388 20.5141 20.7031 19.9303 19.2055 19.9286H12.4271C10.9295 19.9303 9.49382 20.5141 8.43487 21.5519C7.37592 22.5897 6.78022 23.9967 6.77843 25.4643V31H4.51895V25.4643C4.52194 23.4098 5.35608 21.4402 6.8385 19.9874C8.32092 18.5347 10.3307 17.7172 12.4271 17.7143H19.2055C21.302 17.7172 23.3117 18.5347 24.7942 19.9874C26.2766 21.4402 27.1107 23.4098 27.1137 25.4643V31ZM15.8163 2.21429C16.9335 2.21429 18.0256 2.53895 18.9546 3.14722C19.8835 3.75549 20.6075 4.62005 21.035 5.63157C21.4626 6.64309 21.5744 7.75614 21.3565 8.82996C21.1385 9.90379 20.6005 10.8902 19.8106 11.6643C19.0206 12.4385 18.0141 12.9658 16.9183 13.1793C15.8226 13.3929 14.6868 13.2833 13.6547 12.8643C12.6225 12.4453 11.7403 11.7358 11.1196 10.8255C10.4989 9.91513 10.1676 8.84486 10.1676 7.75C10.1676 6.28184 10.7628 4.87381 11.8221 3.83566C12.8814 2.79751 14.3182 2.21429 15.8163 2.21429ZM15.8163 0C14.2522 0 12.7233 0.45453 11.4228 1.30611C10.1223 2.15769 9.10869 3.36808 8.51014 4.7842C7.91159 6.20033 7.75498 7.7586 8.06012 9.26195C8.36526 10.7653 9.11843 12.1462 10.2244 13.2301C11.3304 14.3139 12.7395 15.052 14.2735 15.3511C15.8076 15.6501 17.3976 15.4966 18.8426 14.9101C20.2877 14.3235 21.5228 13.3301 22.3917 12.0557C23.2607 10.7812 23.7245 9.28281 23.7245 7.75C23.7245 5.69457 22.8913 3.72333 21.4082 2.26992C19.9252 0.816515 17.9137 0 15.8163 0ZM25.984 2.511L29.8974 0.296714L31.0271 2.21429L27.1137 4.42857L25.984 2.511ZM0 6.64286H4.51895V8.85714H0V6.64286ZM4.51895 4.42857L0.605539 2.21429L1.73528 0.296714L5.64869 2.511L4.51895 4.42857Z" fill="white"/>
<path d="M27.1137 11.0714L28.6092 8.42844L26.012 6.95893L24.4973 9.52997L27.1137 11.0714ZM31.0271 13.2857L33.6435 14.8272L35.2122 12.1646L32.5226 10.6427L31.0271 13.2857ZM29.8974 15.2033L28.4019 17.8463L30.9991 19.3158L32.5138 16.7447L29.8974 15.2033ZM25.984 12.989L23.3675 11.4475L21.7989 14.1101L24.4885 15.632L25.984 12.989ZM27.1137 6.64286V3.60612H24.077V6.64286H27.1137ZM31.6327 6.64286H34.6694V3.60612H31.6327V6.64286ZM31.6327 8.85714V11.8939H34.6694V8.85714H31.6327ZM27.1137 8.85714H24.077V11.8939H27.1137V8.85714ZM5.64869 12.989L7.14414 15.632L9.83378 14.1101L8.26511 11.4475L5.64869 12.989ZM1.73528 15.2033L-0.881142 16.7447L0.633586 19.3158L3.23073 17.8463L1.73528 15.2033ZM0.605539 13.2857L-0.889915 10.6427L-3.57955 12.1646L-2.01088 14.8272L0.605539 13.2857ZM4.51895 11.0714L7.13537 9.52997L5.62064 6.95893L3.0235 8.42844L4.51895 11.0714ZM27.1137 31V34.0367H30.1504V31H27.1137ZM24.8542 31H21.8175V34.0367H24.8542V31ZM24.8542 25.4643H27.891L27.891 25.4606L24.8542 25.4643ZM19.2055 19.9286L19.2091 16.8918H19.2055V19.9286ZM12.4271 19.9286V16.8918L12.4235 16.8918L12.4271 19.9286ZM6.77843 25.4643L3.74169 25.4606V25.4643H6.77843ZM6.77843 31V34.0367H9.81516V31H6.77843ZM4.51895 31H1.48222V34.0367H4.51895V31ZM4.51895 25.4643L1.48222 25.4599V25.4643H4.51895ZM12.4271 17.7143V14.6775L12.4229 14.6776L12.4271 17.7143ZM19.2055 17.7143L19.2098 14.6776H19.2055V17.7143ZM27.1137 25.4643H30.1504L30.1504 25.4599L27.1137 25.4643ZM15.8163 2.21429L15.8163 5.25102L15.8163 2.21429ZM10.1676 7.75H7.1309H10.1676ZM25.984 2.511L24.4885 -0.131986L21.7989 1.38986L23.3675 4.05246L25.984 2.511ZM29.8974 0.296714L32.5138 -1.24475L30.9991 -3.81579L28.4019 -2.34627L29.8974 0.296714ZM31.0271 2.21429L32.5226 4.85727L35.2122 3.33542L33.6435 0.672822L31.0271 2.21429ZM27.1137 4.42857L24.4973 5.97004L26.012 8.54107L28.6092 7.07156L27.1137 4.42857ZM0 6.64286V3.60612H-3.03673V6.64286H0ZM4.51895 6.64286H7.55569V3.60612H4.51895V6.64286ZM4.51895 8.85714V11.8939H7.55569V8.85714H4.51895ZM0 8.85714H-3.03673V11.8939H0V8.85714ZM4.51895 4.42857L3.0235 7.07156L5.62064 8.54107L7.13537 5.97004L4.51895 4.42857ZM0.605539 2.21429L-2.01088 0.672822L-3.57955 3.33542L-0.889915 4.85727L0.605539 2.21429ZM1.73528 0.296714L3.23073 -2.34627L0.633586 -3.81579L-0.881142 -1.24475L1.73528 0.296714ZM5.64869 2.511L8.26511 4.05246L9.83378 1.38986L7.14414 -0.131986L5.64869 2.511ZM25.6182 13.7144L29.5317 15.9287L32.5226 10.6427L28.6092 8.42844L25.6182 13.7144ZM28.4107 11.7443L27.281 13.6618L32.5138 16.7447L33.6435 14.8272L28.4107 11.7443ZM31.3928 12.5603L27.4794 10.346L24.4885 15.632L28.4019 17.8463L31.3928 12.5603ZM28.6004 14.5305L29.7301 12.6129L24.4973 9.52997L23.3675 11.4475L28.6004 14.5305ZM27.1137 9.67959H31.6327V3.60612H27.1137V9.67959ZM28.5959 6.64286V8.85714H34.6694V6.64286H28.5959ZM31.6327 5.82041H27.1137V11.8939H31.6327V5.82041ZM30.1504 8.85714V6.64286H24.077V8.85714H30.1504ZM4.15323 10.346L0.239823 12.5603L3.23073 17.8463L7.14414 15.632L4.15323 10.346ZM4.3517 13.6618L3.22196 11.7443L-2.01088 14.8272L-0.881142 16.7447L4.3517 13.6618ZM2.10099 15.9287L6.0144 13.7144L3.0235 8.42844L-0.889915 10.6427L2.10099 15.9287ZM1.90253 12.6129L3.03227 14.5305L8.26511 11.4475L7.13537 9.52997L1.90253 12.6129ZM27.1137 27.9633H24.8542V34.0367H27.1137V27.9633ZM27.891 31V25.4643H21.8175V31H27.891ZM27.891 25.4606C27.8882 23.1688 26.9574 20.9844 25.3233 19.383L21.0723 23.7208C21.5561 24.1949 21.8167 24.8245 21.8175 25.468L27.891 25.4606ZM25.3233 19.383C23.6912 17.7836 21.4913 16.8945 19.2091 16.8918L19.202 22.9653C19.915 22.9661 20.5864 23.2446 21.0723 23.7208L25.3233 19.383ZM19.2055 16.8918H12.4271V22.9653H19.2055V16.8918ZM12.4235 16.8918C10.1414 16.8945 7.94142 17.7836 6.30937 19.383L10.5604 23.7208C11.0462 23.2446 11.7177 22.9661 12.4307 22.9653L12.4235 16.8918ZM6.30937 19.383C4.67526 20.9844 3.74449 23.1688 3.74169 25.4606L9.81516 25.468C9.81594 24.8245 10.0766 24.1949 10.5604 23.7208L6.30937 19.383ZM3.74169 25.4643V31H9.81516V25.4643H3.74169ZM6.77843 27.9633H4.51895V34.0367H6.77843V27.9633ZM7.55569 31V25.4643H1.48222V31H7.55569ZM7.55568 25.4687C7.55747 24.238 8.05657 23.0456 8.964 22.1563L4.713 17.8186C2.65558 19.8348 1.48641 22.5815 1.48222 25.4599L7.55568 25.4687ZM8.964 22.1563C9.87349 21.265 11.1193 20.7529 12.4314 20.751L12.4229 14.6776C9.54204 14.6816 6.76835 15.8043 4.713 17.8186L8.964 22.1563ZM12.4271 20.751H19.2055V14.6776H12.4271V20.751ZM19.2013 20.751C20.5134 20.7529 21.7592 21.265 22.6687 22.1563L26.9197 17.8186C24.8643 15.8043 22.0906 14.6816 19.2098 14.6776L19.2013 20.751ZM22.6687 22.1563C23.5761 23.0456 24.0752 24.238 24.077 25.4687L30.1504 25.4599C30.1462 22.5815 28.9771 19.8348 26.9197 17.8186L22.6687 22.1563ZM24.077 25.4643V31H30.1504V25.4643H24.077ZM15.8163 5.25102C16.3464 5.25102 16.8597 5.40535 17.291 5.68775L20.6181 0.606695C19.1916 -0.327454 17.5206 -0.822449 15.8163 -0.822449L15.8163 5.25102ZM17.291 5.68775C17.7216 5.96971 18.0478 6.36408 18.2379 6.81383L23.8322 4.44931C23.1672 2.87603 22.0454 1.54127 20.6181 0.606695L17.291 5.68775ZM18.2379 6.81383C18.4277 7.2629 18.4763 7.75338 18.3804 8.22591L24.3325 9.43402C24.6725 7.7589 24.4974 6.02329 23.8322 4.44931L18.2379 6.81383ZM18.3804 8.22591C18.2844 8.69886 18.0459 9.14186 17.6851 9.49547L21.936 13.8332C23.1552 12.6385 23.9926 11.1087 24.3325 9.43402L18.3804 8.22591ZM17.6851 9.49547C17.3236 9.84971 16.8557 10.0977 16.3373 10.1987L17.4994 16.16C19.1725 15.8338 20.7176 15.0273 21.936 13.8332L17.6851 9.49547ZM16.3373 10.1987C15.8187 10.2998 15.2817 10.2474 14.7969 10.0506L12.5125 15.6781C14.0919 16.3192 15.8265 16.4861 17.4994 16.16L16.3373 10.1987ZM14.7969 10.0506C14.3125 9.85397 13.9084 9.52505 13.6287 9.11478L8.61058 12.5362C9.57222 13.9466 10.9325 15.0367 12.5125 15.6781L14.7969 10.0506ZM13.6287 9.11478C13.3494 8.70527 13.2044 8.23043 13.2044 7.75H7.1309C7.1309 9.45929 7.64842 11.125 8.61058 12.5362L13.6287 9.11478ZM13.2044 7.75C13.2044 7.10725 13.4643 6.47813 13.9476 6.00453L9.6966 1.66678C8.06119 3.26949 7.1309 5.45642 7.1309 7.75H13.2044ZM13.9476 6.00453C14.4329 5.5289 15.104 5.25102 15.8163 5.25102L15.8163 -0.822449C13.5324 -0.822449 11.3299 0.0661216 9.6966 1.66678L13.9476 6.00453ZM15.8163 -3.03673C13.6651 -3.03673 11.5574 -2.41187 9.75921 -1.23442L13.0864 3.84664C13.8892 3.32093 14.8394 3.03673 15.8163 3.03673L15.8163 -3.03673ZM9.75921 -1.23442C7.9604 -0.0565288 6.54898 1.62405 5.71299 3.60194L11.3073 5.96646C11.6684 5.1121 12.2842 4.37191 13.0864 3.84664L9.75921 -1.23442ZM5.71299 3.60194C4.87671 5.58053 4.65688 7.76136 5.08407 9.866L11.0362 8.6579C10.8531 7.75583 10.9465 6.82014 11.3073 5.96646L5.71299 3.60194ZM5.08407 9.866C5.51117 11.9702 6.56377 13.8945 8.09891 15.399L12.3499 11.0612C11.6731 10.3979 11.2193 9.56037 11.0362 8.6579L5.08407 9.866ZM8.09891 15.399C9.6334 16.9027 11.5811 17.9201 13.6925 18.3317L14.8545 12.3705C13.8979 12.184 13.0274 11.7251 12.3499 11.0612L8.09891 15.399ZM13.6925 18.3317C15.8036 18.7432 17.9925 18.5326 19.9848 17.7238L17.7005 12.0963C16.8027 12.4607 15.8115 12.557 14.8545 12.3705L13.6925 18.3317ZM19.9848 17.7238C21.9777 16.9149 23.6908 15.5409 24.9008 13.7664L19.8827 10.345C19.3547 11.1194 18.5977 11.7321 17.7005 12.0963L19.9848 17.7238ZM24.9008 13.7664C26.1112 11.9911 26.7612 9.89724 26.7612 7.75H20.6878C20.6878 8.66838 20.4102 9.57132 19.8827 10.345L24.9008 13.7664ZM26.7612 7.75C26.7612 4.86916 25.5929 2.11901 23.5337 0.101047L19.2827 4.4388C20.1897 5.32765 20.6878 6.51999 20.6878 7.75H26.7612ZM23.5337 0.101047C21.4767 -1.91487 18.6995 -3.03673 15.8163 -3.03673L15.8163 3.03673C17.1279 3.03673 18.3737 3.5479 19.2827 4.4388L23.5337 0.101047ZM27.4794 5.15399L31.3928 2.9397L28.4019 -2.34627L24.4885 -0.131986L27.4794 5.15399ZM27.281 1.83818L28.4107 3.75575L33.6435 0.672822L32.5138 -1.24475L27.281 1.83818ZM29.5317 -0.4287L25.6182 1.78559L28.6092 7.07156L32.5226 4.85727L29.5317 -0.4287ZM29.7301 2.88711L28.6004 0.969536L23.3675 4.05246L24.4973 5.97004L29.7301 2.88711ZM0 9.67959H4.51895V3.60612H0V9.67959ZM1.48222 6.64286V8.85714H7.55569V6.64286H1.48222ZM4.51895 5.82041H0V11.8939H4.51895V5.82041ZM3.03673 8.85714V6.64286H-3.03673V8.85714H3.03673ZM6.0144 1.78559L2.10099 -0.4287L-0.889915 4.85727L3.0235 7.07156L6.0144 1.78559ZM3.22196 3.75575L4.3517 1.83818L-0.881142 -1.24475L-2.01088 0.672822L3.22196 3.75575ZM0.239823 2.9397L4.15323 5.15399L7.14414 -0.131986L3.23073 -2.34627L0.239823 2.9397ZM3.03227 0.969536L1.90253 2.88711L7.13537 5.97004L8.26511 4.05246L3.03227 0.969536Z" fill="black" mask="url(#path-1-inside-1_1_2581)"/>
</svg>
