<svg width="50" height="50" viewBox="0 0 50 50" fill="none" xmlns="http://www.w3.org/2000/svg">
<path d="M24.9997 6.25C15.7913 6.25 8.33301 9.97917 8.33301 14.5833V35.4167C8.33301 40.0208 15.8122 43.75 24.9997 43.75C34.1872 43.75 41.6663 40.0208 41.6663 35.4167V14.5833C41.6663 9.97917 34.208 6.25 24.9997 6.25ZM37.4997 35.4167C37.4997 36.4583 33.0622 39.5833 24.9997 39.5833C16.9372 39.5833 12.4997 36.4583 12.4997 35.4167V30.7708C15.8538 32.3958 20.2497 33.3333 24.9997 33.3333C29.7497 33.3333 34.1455 32.3958 37.4997 30.7708V35.4167ZM37.4997 25.9375C34.7913 27.9167 30.0413 29.1667 24.9997 29.1667C19.958 29.1667 15.208 27.9167 12.4997 25.9375V20.0833C15.5622 21.8125 20.0205 22.9167 24.9997 22.9167C29.9788 22.9167 34.4372 21.8125 37.4997 20.0833V25.9375ZM24.9997 18.75C16.9372 18.75 12.4997 15.625 12.4997 14.5833C12.4997 13.5417 16.9372 10.4167 24.9997 10.4167C33.0622 10.4167 37.4997 13.5417 37.4997 14.5833C37.4997 15.625 33.0622 18.75 24.9997 18.75Z" fill="black"/>
</svg>
